<?xml version="1.0" encoding="utf-8"?>
<!-- Generator: Adobe Illustrator 21.1.0, SVG Export Plug-In . SVG Version: 6.00 Build 0)  -->
<svg version="1.1" id="Layer_1" xmlns="http://www.w3.org/2000/svg" xmlns:xlink="http://www.w3.org/1999/xlink" x="0px" y="0px"
	 viewBox="0 0 841.9 595.3" style="enable-background:new 0 0 841.9 595.3;" xml:space="preserve">
<style type="text/css">
	.st0{fill:#BD1B21;}
	.st1{fill:#D71D28;}
	.st2{fill:#EE303C;}
	.st3{clip-path:url(#SVGID_2_);}
	.st4{fill:#DF6640;}
	.st5{clip-path:url(#SVGID_4_);}
	.st6{fill:#D83E24;}
	.st7{clip-path:url(#SVGID_6_);}
	.st8{fill:#FFFFFF;}
	.st9{fill:#58595B;}
	.st10{fill:none;stroke:#D42027;stroke-width:3;stroke-miterlimit:10;}
</style>
<g>
	<polygon class="st0" points="257,297.6 213,272.2 213,323.1 257,348.5 257,297.6 	"/>
	<polygon class="st1" points="257,246.8 213,272.2 242.3,289.2 242.3,297.6 249.7,293.4 257,297.6 301.1,272.2 	"/>
	<polygon class="st2" points="257,297.6 257,306.1 249.7,310.4 257,314.6 257,348.5 301.1,323.1 301.1,272.2 	"/>
	<g>
		<defs>
			<path id="SVGID_1_" d="M257,263.7l-29.4,17v33.9l29.4,17l29.4-17v-17l-29.4,17l-7.4-4.2l36.7-21.2v-8.5L257,263.7z M242.3,297.6
				v-8.5l14.7-8.5l7.3,4.3L242.3,297.6z"/>
		</defs>
		<clipPath id="SVGID_2_">
			<use xlink:href="#SVGID_1_"  style="overflow:visible;"/>
		</clipPath>
		<g class="st3">
			<polygon class="st4" points="257,297.6 257,348.5 301.1,323.1 			"/>
			<polygon class="st4" points="301.1,272.2 301.1,323.1 257,297.6 			"/>
		</g>
	</g>
	<g>
		<defs>
			<path id="SVGID_3_" d="M257,263.7l-29.4,17v33.9l29.4,17l29.4-17v-17l-29.4,17l-7.4-4.2l36.7-21.2v-8.5L257,263.7z M242.3,297.6
				v-8.5l14.7-8.5l7.3,4.3L242.3,297.6z"/>
		</defs>
		<clipPath id="SVGID_4_">
			<use xlink:href="#SVGID_3_"  style="overflow:visible;"/>
		</clipPath>
		<g class="st5">
			<polygon class="st6" points="257,246.8 257,297.6 301.1,272.2 			"/>
			<polygon class="st6" points="257,246.8 257,297.6 213,272.2 			"/>
		</g>
	</g>
	<g>
		<defs>
			<path id="SVGID_5_" d="M257,263.7l-29.4,17v33.9l29.4,17l29.4-17v-17l-29.4,17l-7.4-4.2l36.7-21.2v-8.5L257,263.7z M242.3,297.6
				v-8.5l14.7-8.5l7.3,4.3L242.3,297.6z"/>
		</defs>
		<use xlink:href="#SVGID_5_"  style="overflow:visible;fill:#FFFFFF;"/>
		<clipPath id="SVGID_6_">
			<use xlink:href="#SVGID_5_"  style="overflow:visible;"/>
		</clipPath>
		<g class="st7">
			<polygon class="st8" points="257,297.6 257,348.5 213,323.1 			"/>
			<polygon class="st8" points="213,323.1 213,272.2 257,297.6 			"/>
		</g>
	</g>
	<path class="st2" d="M249.7,293.4"/>
</g>
<g>
	<path class="st9" d="M362.3,266.4h32v9.4h-21.1v6h19.1v8.7h-19.1v6.3h21.4v9.4h-32.3V266.4z"/>
	<path class="st9" d="M436.1,303.4c-3.4,2.2-7.6,3.5-12.1,3.5c-12.3,0-21.4-9.2-21.4-20.6v-0.1c0-11.4,9.2-20.7,21.5-20.7
		s21.4,9.2,21.4,20.6v0.1c0,4.2-1.3,8.2-3.5,11.4l4.1,3.5l-5.6,6.2L436.1,303.4z M428.1,296.4l-5.5-4.7l5.6-6.3l5.4,4.9
		c0.5-1.2,0.7-2.5,0.7-3.9v-0.1c0-5.8-4.2-10.9-10.3-10.9c-6,0-10.1,5-10.1,10.7v0.1c0,5.7,4.1,10.8,10.2,10.8
		C425.5,297.2,426.9,296.9,428.1,296.4z"/>
	<path class="st9" d="M454.7,288.7v-22.3h11.2v22.1c0,5.7,2.9,8.5,7.3,8.5s7.3-2.6,7.3-8.2v-22.4h11.2v22.1
		c0,12.8-7.3,18.5-18.6,18.5C461.8,306.9,454.7,301.1,454.7,288.7z"/>
	<path class="st9" d="M502.5,266.4h11.1v39.8h-11.1V266.4z"/>
	<path class="st9" d="M524.8,266.4h20.4c5,0,8.5,1.3,10.9,3.6c1.6,1.6,2.6,3.7,2.6,6.4v0.1c0,4.6-2.6,7.3-6.1,8.9
		c4.8,1.6,7.9,4.3,7.9,9.7v0.1c0,6.8-5.6,11-15.1,11h-20.5V266.4z M542.5,282.2c3.4,0,5.2-1.1,5.2-3.5v-0.1c0-2.2-1.7-3.4-5-3.4
		h-7.2v7H542.5z M544.1,297.3c3.4,0,5.3-1.3,5.3-3.6v-0.1c0-2.2-1.7-3.6-5.4-3.6h-8.4v7.3H544.1z"/>
	<path class="st9" d="M569.7,266.4h11.1v39.8h-11.1V266.4z"/>
	<path class="st9" d="M601.7,276h-11.9v-9.7h34.9v9.7h-11.9v30.1h-11V276z"/>
</g>
<g>
	<path class="st0" d="M513.2,331.6c-1.1,0-2.1-0.2-3-0.5c-0.9-0.4-1.7-0.8-2.3-1.5c-0.6-0.6-1.1-1.4-1.5-2.3
		c-0.4-0.9-0.5-1.8-0.5-2.8v0c0-1,0.2-1.9,0.5-2.8s0.9-1.6,1.5-2.3s1.4-1.2,2.3-1.5c0.9-0.4,1.9-0.6,2.9-0.6c0.6,0,1.2,0,1.7,0.1
		c0.5,0.1,1,0.2,1.4,0.4c0.4,0.2,0.8,0.4,1.2,0.6s0.8,0.5,1.1,0.8l-1.9,2.3c-0.3-0.2-0.5-0.4-0.8-0.6c-0.3-0.2-0.5-0.3-0.8-0.4
		c-0.3-0.1-0.6-0.2-0.9-0.3c-0.3-0.1-0.7-0.1-1.1-0.1c-0.6,0-1.1,0.1-1.6,0.3c-0.5,0.2-0.9,0.5-1.3,0.9c-0.4,0.4-0.6,0.8-0.9,1.4
		c-0.2,0.5-0.3,1.1-0.3,1.7v0c0,0.6,0.1,1.2,0.3,1.8s0.5,1,0.9,1.4s0.8,0.7,1.3,0.9c0.5,0.2,1.1,0.3,1.7,0.3c1.1,0,2.1-0.3,2.9-0.8
		v-2h-3.1v-2.6h6v6c-0.7,0.6-1.6,1.1-2.5,1.6C515.6,331.4,514.5,331.6,513.2,331.6z"/>
	<path class="st0" d="M530.5,317.5h6.3c1.8,0,3.1,0.5,4,1.4c0.8,0.8,1.2,1.8,1.2,3.2v0c0,1.1-0.3,2-0.8,2.7
		c-0.5,0.7-1.3,1.2-2.1,1.6l3.4,4.9h-3.6l-3-4.4h0h-2.4v4.4h-3V317.5z M536.6,324.2c0.8,0,1.3-0.2,1.7-0.5c0.4-0.4,0.6-0.8,0.6-1.4
		v0c0-0.7-0.2-1.2-0.6-1.5c-0.4-0.3-1-0.5-1.8-0.5h-3v4H536.6z"/>
	<path class="st0" d="M559.9,331.6c-1.1,0-2.1-0.2-2.9-0.6s-1.7-0.9-2.3-1.5s-1.2-1.4-1.5-2.3c-0.4-0.9-0.5-1.8-0.5-2.8v0
		c0-1,0.2-1.9,0.6-2.8s0.9-1.6,1.5-2.3c0.7-0.7,1.4-1.2,2.3-1.5c0.9-0.4,1.9-0.6,3-0.6c1.1,0,2,0.2,2.9,0.6c0.9,0.4,1.7,0.9,2.3,1.5
		c0.7,0.6,1.2,1.4,1.5,2.3c0.4,0.9,0.5,1.8,0.5,2.8v0c0,1-0.2,1.9-0.6,2.8c-0.4,0.9-0.9,1.6-1.5,2.3c-0.7,0.7-1.4,1.2-2.3,1.5
		C562,331.4,561,331.6,559.9,331.6z M560,328.8c0.6,0,1.2-0.1,1.7-0.3c0.5-0.2,1-0.5,1.3-0.9c0.4-0.4,0.6-0.9,0.9-1.4
		c0.2-0.5,0.3-1.1,0.3-1.7v0c0-0.6-0.1-1.2-0.3-1.7c-0.2-0.5-0.5-1-0.9-1.4c-0.4-0.4-0.8-0.7-1.3-0.9c-0.5-0.2-1.1-0.3-1.7-0.3
		c-0.6,0-1.2,0.1-1.7,0.3c-0.5,0.2-0.9,0.5-1.3,0.9c-0.4,0.4-0.6,0.9-0.9,1.4c-0.2,0.5-0.3,1.1-0.3,1.7v0c0,0.6,0.1,1.2,0.3,1.7
		s0.5,1,0.9,1.4s0.8,0.7,1.3,0.9C558.8,328.7,559.4,328.8,560,328.8z"/>
	<path class="st0" d="M584.2,331.6c-1.9,0-3.3-0.5-4.4-1.5c-1.1-1-1.6-2.6-1.6-4.6v-7.9h3v7.8c0,1.1,0.3,2,0.8,2.6
		c0.5,0.6,1.3,0.9,2.2,0.9c0.9,0,1.7-0.3,2.2-0.8s0.8-1.4,0.8-2.5v-7.9h3v7.8c0,1.1-0.1,2-0.4,2.7c-0.3,0.8-0.7,1.4-1.2,1.9
		c-0.5,0.5-1.2,0.9-1.9,1.2C586,331.4,585.2,331.6,584.2,331.6z"/>
	<path class="st0" d="M601.9,317.5h5.7c0.8,0,1.6,0.1,2.2,0.3s1.2,0.6,1.7,1c0.5,0.4,0.8,0.9,1,1.5c0.2,0.6,0.4,1.2,0.4,1.9v0
		c0,0.8-0.1,1.5-0.4,2.1s-0.7,1.1-1.2,1.5c-0.5,0.4-1.1,0.7-1.8,0.9s-1.4,0.3-2.2,0.3h-2.3v4.2h-3V317.5z M607.3,324.5
		c0.8,0,1.4-0.2,1.8-0.6s0.6-0.9,0.6-1.5v0c0-0.7-0.2-1.2-0.7-1.6c-0.4-0.4-1-0.5-1.8-0.5h-2.4v4.2H607.3z"/>
</g>
<line class="st10" x1="331.4" y1="245.8" x2="331.4" y2="349.5"/>
</svg>
