<?xml version="1.0" encoding="utf-8"?>
<!-- Generator: Adobe Illustrator 19.2.1, SVG Export Plug-In . SVG Version: 6.00 Build 0)  -->
<svg version="1.1" id="Layer_1" xmlns="http://www.w3.org/2000/svg" xmlns:xlink="http://www.w3.org/1999/xlink" x="0px" y="0px"
	 viewBox="0 0 792 612" style="enable-background:new 0 0 792 612;" xml:space="preserve">
<style type="text/css">
	.st0{fill:#04637C;}
	.st1{fill:#3ECFFF;}
	.st2{fill:#FFFFFF;}
	.st3{fill:#00A0CD;}
	.st4{fill:#02323E;}
	.st5{font-family:'MyriadPro-Regular';}
	.st6{font-size:20.7526px;}
</style>
<g>
	<path class="st0" d="M313.3,115.1h-5.7c-1.6,0-2.7-0.2-3.3-0.6c-0.6-0.4-1-1.1-1-2.2c0-1.1,0.3-1.8,0.8-2.2
		c0.6-0.4,2.1-0.6,4.6-0.6h11.1c1.4,0,2.4,0.2,2.9,0.6c0.5,0.4,1,1.1,1.4,2.1l15.2,38h0.7c1.4,0,2.4,0.2,2.9,0.6
		c0.5,0.4,0.8,1.1,0.8,2.1c0,1.1-0.2,1.8-0.7,2.2c-0.5,0.4-1.4,0.6-2.8,0.6h-10.6c-2,0-3.2-0.2-3.8-0.6c-0.6-0.4-0.8-1.1-0.8-2.2
		c0-1,0.3-1.7,0.9-2.1s1.8-0.6,3.4-0.6h3.6l-3.8-9.3h-19.8l-3.3,9.3h3.8c1.7,0,2.9,0.2,3.5,0.6c0.6,0.4,0.9,1.1,0.9,2.1
		c0,1.1-0.3,1.8-0.8,2.2c-0.6,0.4-1.8,0.6-3.7,0.6h-10.2c-1.7,0-2.8-0.2-3.3-0.6c-0.5-0.4-0.8-1.1-0.8-2.2c0-1,0.3-1.7,0.8-2.1
		s1.6-0.6,3.1-0.6h0.7L313.3,115.1z M311.3,135.7h15.9l-8.4-20.6L311.3,135.7z"/>
	<path class="st0" d="M357.4,141.3c0,3.3,0.7,5.7,2.1,7.2c1.4,1.5,3.6,2.3,6.5,2.3c2.8,0,5.2-0.9,7.3-2.7c2-1.8,3-4,3-6.7v-16.1
		h-5.3c-1,0-1.7-0.2-2.2-0.6c-0.5-0.4-0.7-1.1-0.7-2c0-1,0.2-1.7,0.7-2.2c0.5-0.5,1.3-0.7,2.4-0.7h8.3c1,0,1.7,0.2,2.1,0.6
		c0.4,0.4,0.6,1.5,0.6,3.1v26.7h1.8c1.3,0,2.2,0.2,2.7,0.6c0.6,0.4,0.8,1.1,0.8,2.1c0,0.9-0.3,1.6-0.8,2.1c-0.5,0.5-1.3,0.7-2.3,0.7
		h-5.9c-0.7,0-1.2-0.1-1.6-0.4c-0.4-0.3-0.6-0.7-0.6-1.2v-2.6c-2.5,1.9-4.6,3.2-6.4,3.9s-3.6,1.1-5.6,1.1c-4.3,0-7.5-1.1-9.6-3.4
		c-2.1-2.3-3.2-5.7-3.2-10.3v-17.5h-0.8c-1.8,0-3-0.2-3.6-0.6c-0.6-0.4-1-1.1-1-2.2c0-0.9,0.3-1.6,0.8-2c0.5-0.5,1.3-0.7,2.4-0.7
		h5.9c0.9,0,1.5,0.2,1.9,0.5c0.3,0.4,0.5,1.2,0.5,2.4V141.3z"/>
	<path class="st0" d="M425.5,121.9c1.3,0,2.2,0.2,2.8,0.7c0.6,0.4,0.9,1.1,0.9,2.1c0,0.9-0.3,1.6-0.8,2c-0.5,0.5-1.4,0.7-2.4,0.7
		h-15.7v13c0,4.3,0.6,7,1.7,8.4c1.1,1.3,3,2,5.7,2c2.4,0,5.2-0.7,8.5-2.1c3.3-1.4,5.3-2.1,6.1-2.1c0.7,0,1.3,0.3,1.8,0.8
		c0.5,0.5,0.8,1.2,0.8,1.9c0,0.9-0.3,1.6-1,2.2c-0.6,0.6-1.7,1.3-3.2,1.8c-2.5,1-4.8,1.7-6.9,2.2c-2,0.5-3.9,0.7-5.7,0.7
		c-3,0-5.6-0.5-7.6-1.5c-2.1-1-3.6-2.4-4.6-4.3c-0.5-0.9-0.9-2-1.1-3.2c-0.2-1.2-0.3-3.2-0.3-5.8v-1.2v-13h-6.6
		c-1.1,0-1.9-0.2-2.4-0.6c-0.5-0.4-0.7-1.1-0.7-2.1c0-1.1,0.3-1.8,1-2.2c0.7-0.4,2.1-0.6,4.3-0.6h4.4v-8v-2.1c0-1.1,0.2-1.9,0.7-2.5
		c0.5-0.5,1.2-0.8,2.2-0.8c1.1,0,1.9,0.3,2.4,1c0.4,0.6,0.7,2.1,0.7,4.4v7.9H425.5z"/>
	<path class="st0" d="M483.1,137.7c0,5.5-1.9,10.1-5.7,13.6c-3.8,3.5-8.7,5.3-14.7,5.3c-6,0-10.9-1.8-14.7-5.3
		c-3.8-3.5-5.7-8.1-5.7-13.6s1.9-10.1,5.7-13.6c3.8-3.5,8.7-5.3,14.7-5.3c6,0,10.9,1.8,14.7,5.3
		C481.2,127.6,483.1,132.2,483.1,137.7z M462.7,151.1c4,0,7.3-1.3,9.8-3.8c2.6-2.5,3.8-5.7,3.8-9.7c0-3.9-1.3-7.1-3.8-9.7
		c-2.6-2.6-5.8-3.8-9.8-3.8c-4,0-7.2,1.3-9.8,3.8c-2.6,2.6-3.8,5.8-3.8,9.7c0,3.9,1.3,7.2,3.8,9.7
		C455.4,149.9,458.7,151.1,462.7,151.1z"/>
	<path class="st0" d="M507.5,137.7c2.6,0.8,4.4,2.1,5.4,4c1,1.8,1.6,4.9,1.6,9.2v5.7c0,2.7,0.3,4.5,0.9,5.5c0.6,0.9,1.6,1.6,3.1,1.9
		c0.3,0.1,0.8,0.2,1.4,0.2c2.3,0.3,3.4,1.4,3.4,3.1c0,0.9-0.3,1.5-0.9,2c-0.6,0.5-1.4,0.7-2.5,0.7c-4.4,0-7.5-1.1-9.3-3.3
		c-1.8-2.2-2.7-6.3-2.7-12.2V150c0-3-0.4-5.2-1.3-6.4c-0.9-1.3-3-2.2-6.3-2.7c-1-0.2-1.7-0.5-2.2-1c-0.4-0.5-0.7-1.2-0.7-2.2
		c0-0.8,0.2-1.5,0.5-1.9c0.4-0.5,0.9-0.8,1.7-1c0.4-0.1,0.9-0.2,1.7-0.4c4.3-0.9,6.5-3.9,6.5-8.9v-4.6c0-6,0.9-10.1,2.7-12.3
		c1.8-2.2,4.9-3.3,9.3-3.3c1.1,0,1.9,0.3,2.5,0.8c0.6,0.5,0.9,1.2,0.9,2.1c0,1.8-1.1,2.8-3.4,3.1c-0.4,0.1-0.8,0.1-1.1,0.2
		c-1.6,0.3-2.8,1-3.4,1.9c-0.6,1-1,2.9-1,5.6v5.7c0,4.3-0.5,7.4-1.6,9.2C511.9,135.6,510.1,136.9,507.5,137.7z"/>
	<path class="st0" d="M570.5,110.8c0.3-0.7,0.6-1.2,1.1-1.5c0.5-0.3,1.1-0.4,2-0.4c1,0,1.6,0.2,2,0.7c0.4,0.5,0.6,1.4,0.6,2.9
		c0,2.5,0,4.9,0.1,7.1c0.1,2.2,0.1,3.1,0.1,2.9c0,1.2-0.2,2-0.6,2.5c-0.4,0.4-1.2,0.6-2.2,0.6c-1.7,0-2.8-1.2-3.3-3.7
		c-0.2-0.7-0.3-1.3-0.4-1.7c-0.5-1.9-1.7-3.5-3.5-4.8c-1.9-1.2-4.1-1.8-6.6-1.8c-4.6,0-8.3,1.7-11,5c-2.8,3.4-4.2,7.9-4.2,13.5
		c0,5.7,1.4,10.2,4.2,13.5c2.8,3.4,6.5,5,11.1,5c1.5,0,3-0.2,4.6-0.6c1.6-0.4,3.1-1.1,4.6-1.9c0.7-0.4,1.7-1,2.9-1.8
		c1.2-0.9,2.1-1.3,2.6-1.3c0.8,0,1.5,0.3,2,0.8c0.6,0.5,0.8,1.2,0.8,2s-0.3,1.5-0.9,2.2c-0.6,0.7-1.7,1.6-3.4,2.6
		c-2.2,1.4-4.4,2.5-6.6,3.1c-2.2,0.7-4.5,1-7,1c-6.4,0-11.7-2.3-15.9-6.8c-4.2-4.5-6.3-10.3-6.3-17.4c0-7,2.1-12.8,6.3-17.4
		c4.2-4.6,9.5-6.9,15.9-6.9c1.7,0,3.5,0.2,5.2,0.6C566.7,109.3,568.5,109.9,570.5,110.8z"/>
	<path class="st0" d="M606.1,136.5l8.4-24.3c0.4-0.9,0.9-1.6,1.5-2c0.6-0.4,1.5-0.6,2.7-0.6h6.4c0.8,0,1.5,0.2,1.9,0.7
		c0.4,0.5,0.6,1.1,0.6,2c0,1-0.3,1.7-0.8,2c-0.5,0.4-1.5,0.6-2.9,0.6h-0.6l1.1,35.4h0.9c1.7,0,2.8,0.2,3.4,0.6
		c0.6,0.4,0.9,1.1,0.9,2.1c0,0.9-0.2,1.6-0.7,2.1c-0.5,0.5-1.1,0.7-2,0.7h-10.9c-1.5,0-2.5-0.2-3.1-0.6c-0.5-0.4-0.8-1.1-0.8-2.2
		c0-1,0.3-1.7,1-2.1c0.6-0.4,1.9-0.6,3.7-0.6h1.7l-0.8-33.4l-7.7,22.4c-0.4,1.1-0.9,1.8-1.4,2.3c-0.6,0.4-1.4,0.6-2.6,0.6
		c-1.1,0-1.9-0.2-2.5-0.6c-0.6-0.4-1-1.2-1.4-2.2l-7.8-22.4l-0.7,33.4h2.6c1.5,0,2.6,0.2,3.2,0.6c0.6,0.4,0.9,1.1,0.9,2.1
		c0,1-0.3,1.8-0.8,2.2c-0.5,0.4-1.6,0.6-3.1,0.6h-10.9c-0.9,0-1.6-0.2-2-0.7c-0.5-0.5-0.7-1.2-0.7-2.1c0-1,0.3-1.7,0.9-2.1
		c0.6-0.4,1.7-0.6,3.4-0.6h0.9l1.1-35.4h-0.6c-1.4,0-2.4-0.2-3-0.6c-0.5-0.4-0.8-1.1-0.8-2c0-0.9,0.2-1.5,0.7-2
		c0.4-0.5,1.1-0.7,1.9-0.7h6.4c1.2,0,2.1,0.2,2.7,0.6c0.6,0.4,1.1,1.1,1.5,2L606.1,136.5z"/>
	<path class="st0" d="M642.4,154.2c-0.1,1.2-0.4,2-0.9,2.4c-0.5,0.5-1.2,0.7-2.2,0.7c-1.1,0-1.9-0.3-2.4-1c-0.5-0.6-0.8-1.7-0.9-3.1
		l-0.5-9v-0.7c0-1.2,0.2-2.1,0.7-2.6c0.5-0.5,1.3-0.8,2.4-0.8c1.6,0,2.7,1.1,3.3,3.3c0.3,1.1,0.6,2,0.9,2.5c0.9,1.8,2.3,3.2,4.3,4.2
		c2,1,4.3,1.5,7,1.5c3.3,0,6.1-0.8,8.1-2.4c2.1-1.6,3.1-3.6,3.1-6.1c0-2-0.6-3.7-1.9-4.9c-1.3-1.2-3.2-2-5.6-2.4l-5.8-0.8
		c-5.4-0.8-9.3-2.2-11.7-4.2c-2.5-2.1-3.7-5-3.7-8.7c0-4,1.6-7.3,4.9-10c3.3-2.7,7.4-4,12.3-4c1.4,0,2.9,0.2,4.5,0.6
		c1.6,0.4,3.4,1,5.4,1.8c0.1-0.8,0.3-1.3,0.6-1.6c0.4-0.3,1-0.4,1.9-0.4c1.1,0,1.9,0.2,2.4,0.5c0.4,0.3,0.7,1.1,0.8,2.4l0.5,8.1v0.4
		c0,0.9-0.3,1.6-0.8,2.1c-0.5,0.5-1.2,0.8-2.2,0.8c-1.4,0-2.4-1-3.2-2.9c-0.4-1.1-0.7-1.9-1.1-2.4c-0.9-1.3-2.1-2.3-3.7-3
		c-1.6-0.7-3.4-1.1-5.5-1.1c-3.1,0-5.7,0.8-7.6,2.3c-2,1.6-2.9,3.6-2.9,6.1c0,2,0.7,3.5,2.2,4.7c1.5,1.1,3.7,1.9,6.7,2.3l6.2,0.8
		c4.5,0.6,7.9,2,10.2,4.1c2.3,2.2,3.4,5.1,3.4,8.8c0,4.4-1.6,7.8-4.9,10.5c-3.2,2.6-7.6,3.9-13,3.9c-1.9,0-3.7-0.2-5.6-0.7
		C646.5,155.9,644.5,155.2,642.4,154.2z"/>
	<path class="st0" d="M704.6,137.6c-2.6-0.8-4.5-2-5.5-3.9c-1-1.8-1.6-4.9-1.6-9.2v-5.7c0-2.7-0.3-4.6-0.9-5.5c-0.6-0.9-1.6-1.6-3-2
		c-0.3-0.1-0.8-0.2-1.5-0.2c-2.2-0.3-3.4-1.3-3.4-2.9c0-1,0.3-1.7,0.8-2.2c0.5-0.5,1.4-0.8,2.5-0.8c4.4,0,7.5,1.1,9.3,3.3
		c1.8,2.2,2.7,6.3,2.7,12.2v4.6c0,5,2.1,8,6.3,8.9c0.8,0.2,1.4,0.3,1.8,0.4c0.8,0.2,1.4,0.6,1.8,1c0.4,0.5,0.6,1.1,0.6,1.9
		c0,0.9-0.2,1.6-0.6,2.1c-0.4,0.5-1,0.9-1.8,1c-0.3,0.1-0.7,0.1-1.2,0.2c-4.6,0.9-6.8,3.9-6.8,9v4.5c0,6-0.9,10.1-2.7,12.3
		c-1.8,2.2-4.9,3.3-9.3,3.3c-1.1,0-2-0.3-2.5-0.8s-0.8-1.3-0.8-2.3c0-1.7,1.1-2.6,3.4-3c0.5-0.1,0.8-0.1,1-0.2
		c1.7-0.3,2.9-0.9,3.5-1.8c0.6-0.9,0.9-2.8,0.9-5.6v-5.8c0-4.3,0.5-7.3,1.6-9.2C700.1,139.8,702,138.4,704.6,137.6z"/>
</g>
<g>
	<path class="st1" d="M193.3,147.4h-36.2c-4.3,0-7.9-3.5-7.9-7.9v-36.2c0-4.3,3.5-7.9,7.9-7.9h36.2c4.3,0,7.9,3.5,7.9,7.9v36.2
		C201.2,143.9,197.6,147.4,193.3,147.4z"/>
	<g>
		<path class="st2" d="M170.2,127.4c0.7-0.2,1.4-0.4,2.1-0.5l0,7.8c0,0.4,0.2,0.7,0.5,0.9c0.3,0.2,0.7,0.2,1,0l26.8-15.7
			c0.3-0.2,0.5-0.5,0.5-0.9c0-0.4-0.2-0.7-0.5-0.9l-27-15.4c-0.3-0.2-0.7-0.2-1,0c-0.3,0.2-0.5,0.5-0.5,0.9l0.1,8.4
			c-0.3,0.1-0.5,0.2-0.8,0.4c-1,0.5-2.1,1.1-3.4,1.9c-2.1,1.2-4.2,2.8-6.4,4.8c-2,1.8-3.8,3.8-5.5,5.9c-2.8,3.6-5.1,7.7-6.7,12.2
			c-0.6,1.6-1.2,3.5-1.6,5.5c-0.1,0.5,0.2,1,0.7,1.1c0.2,0.1,0.4,0.1,0.5,0c0.3-0.1,0.6-0.2,0.7-0.5c1-1.7,2.2-3.2,3.2-4.4
			c1.6-1.8,3.4-3.6,5.4-5.2C161.8,130.8,166,128.6,170.2,127.4L170.2,127.4z M170.2,127.4"/>
	</g>
</g>
<path class="st3" d="M216.2,123h36.2c4.3,0,7.9,3.5,7.9,7.9V167c0,4.3-3.5,7.9-7.9,7.9h-36.2c-4.3,0-7.9-3.5-7.9-7.9v-36.2
	C208.4,126.5,211.9,123,216.2,123z"/>
<g>
	<path class="st2" d="M239.4,143c-0.7,0.2-1.4,0.4-2.1,0.5l0-7.8c0-0.4-0.2-0.7-0.5-0.9c-0.3-0.2-0.7-0.2-1,0l-26.8,15.7
		c-0.3,0.2-0.5,0.5-0.5,0.9c0,0.4,0.2,0.7,0.5,0.9l27,15.4c0.3,0.2,0.7,0.2,1,0c0.3-0.2,0.5-0.5,0.5-0.9l-0.1-8.4
		c0.3-0.1,0.5-0.2,0.8-0.4c1-0.5,2.1-1.1,3.4-1.9c2.1-1.2,4.2-2.8,6.4-4.8c2-1.8,3.8-3.8,5.5-5.9c2.8-3.6,5.1-7.7,6.7-12.2
		c0.6-1.6,1.2-3.5,1.6-5.5c0.1-0.5-0.2-1-0.7-1.1c-0.2-0.1-0.4-0.1-0.5,0c-0.3,0.1-0.6,0.2-0.7,0.5c-1,1.7-2.2,3.2-3.2,4.4
		c-1.6,1.8-3.4,3.6-5.4,5.2C247.7,139.7,243.6,141.8,239.4,143L239.4,143z M239.4,143"/>
</g>
<path class="st1" d="M192.1,192.2h-20.7c-3.6,0-6.6-3-6.6-6.6v-20.7c0-3.6,3-6.6,6.6-6.6h20.7c3.6,0,6.6,3,6.6,6.6v20.7
	C198.7,189.2,195.7,192.2,192.1,192.2z"/>
<path class="st3" d="M235.7,112H215c-3.6,0-6.6-3-6.6-6.6V84.7c0-3.6,3-6.6,6.6-6.6h20.7c3.6,0,6.6,3,6.6,6.6v20.7
	C242.3,109,239.3,112,235.7,112z"/>
<path class="st3" d="M248.7,68.7h-12.8c-2.3,0-4.1-1.8-4.1-4.1V51.8c0-2.3,1.8-4.1,4.1-4.1h12.8c2.3,0,4.1,1.8,4.1,4.1v12.8
	C252.8,66.8,250.9,68.7,248.7,68.7z"/>
<path class="st1" d="M171.2,221.8h-12.8c-2.3,0-4.1-1.8-4.1-4.1v-12.8c0-2.3,1.8-4.1,4.1-4.1h12.8c2.3,0,4.1,1.8,4.1,4.1v12.8
	C175.3,219.9,173.5,221.8,171.2,221.8z"/>
<path class="st1" d="M203.9,426.5h-85.4c-10.2,0-18.6-8.4-18.6-18.6v-85.4c0-10.2,8.4-18.6,18.6-18.6h85.4
	c10.2,0,18.6,8.4,18.6,18.6v85.4C222.5,418.1,214.1,426.5,203.9,426.5z"/>
<path class="st3" d="M353,426.5h-85.4c-10.2,0-18.6-8.4-18.6-18.6v-85.4c0-10.2,8.4-18.6,18.6-18.6H353c10.2,0,18.6,8.4,18.6,18.6
	v85.4C371.6,418.1,363.2,426.5,353,426.5z"/>
<path class="st0" d="M506,426.5h-85.4c-10.2,0-18.6-8.4-18.6-18.6v-85.4c0-10.2,8.4-18.6,18.6-18.6H506c10.2,0,18.6,8.4,18.6,18.6
	v85.4C524.5,418.1,516.2,426.5,506,426.5z"/>
<path class="st4" d="M658.9,427.5h-85.4c-10.2,0-18.6-8.4-18.6-18.6v-85.4c0-10.2,8.4-18.6,18.6-18.6h85.4
	c10.2,0,18.6,8.4,18.6,18.6v85.4C677.5,419.1,669.1,427.5,658.9,427.5z"/>
<g>
	<path class="st0" d="M1124.1,126.3h-5.7c-1.6,0-2.7-0.2-3.3-0.6c-0.6-0.4-1-1.1-1-2.2c0-1.1,0.3-1.8,0.8-2.2
		c0.6-0.4,2.1-0.6,4.6-0.6h11.1c1.4,0,2.4,0.2,2.9,0.6c0.5,0.4,1,1.1,1.4,2.1l15.2,38h0.7c1.4,0,2.4,0.2,2.9,0.6
		c0.5,0.4,0.8,1.1,0.8,2.1c0,1.1-0.2,1.8-0.7,2.2c-0.5,0.4-1.4,0.6-2.8,0.6h-10.6c-2,0-3.2-0.2-3.8-0.6c-0.6-0.4-0.8-1.1-0.8-2.2
		c0-1,0.3-1.7,0.9-2.1s1.8-0.6,3.4-0.6h3.6l-3.8-9.3h-19.8l-3.3,9.3h3.8c1.7,0,2.9,0.2,3.5,0.6c0.6,0.4,0.9,1.1,0.9,2.1
		c0,1.1-0.3,1.8-0.8,2.2c-0.6,0.4-1.8,0.6-3.7,0.6h-10.2c-1.7,0-2.8-0.2-3.3-0.6c-0.5-0.4-0.8-1.1-0.8-2.2c0-1,0.3-1.7,0.8-2.1
		c0.5-0.4,1.6-0.6,3.1-0.6h0.7L1124.1,126.3z M1122.1,146.9h15.9l-8.4-20.6L1122.1,146.9z"/>
	<path class="st0" d="M1168.2,152.4c0,3.3,0.7,5.7,2.1,7.2c1.4,1.5,3.6,2.3,6.5,2.3c2.8,0,5.2-0.9,7.3-2.7c2-1.8,3-4,3-6.7v-16.1
		h-5.3c-1,0-1.7-0.2-2.2-0.6c-0.5-0.4-0.7-1.1-0.7-2c0-1,0.2-1.7,0.7-2.2c0.5-0.5,1.3-0.7,2.4-0.7h8.3c1,0,1.7,0.2,2.1,0.6
		c0.4,0.4,0.6,1.5,0.6,3.1v26.7h1.8c1.3,0,2.2,0.2,2.7,0.6c0.6,0.4,0.8,1.1,0.8,2.1c0,0.9-0.3,1.6-0.8,2.1c-0.5,0.5-1.3,0.7-2.3,0.7
		h-5.9c-0.7,0-1.2-0.1-1.6-0.4c-0.4-0.3-0.6-0.7-0.6-1.2v-2.6c-2.5,1.9-4.6,3.2-6.4,3.9c-1.8,0.7-3.6,1.1-5.6,1.1
		c-4.3,0-7.5-1.1-9.6-3.4c-2.1-2.3-3.2-5.7-3.2-10.3v-17.5h-0.8c-1.8,0-3-0.2-3.6-0.6c-0.6-0.4-1-1.1-1-2.2c0-0.9,0.3-1.6,0.8-2
		c0.5-0.5,1.3-0.7,2.4-0.7h5.9c0.9,0,1.5,0.2,1.9,0.5c0.3,0.4,0.5,1.2,0.5,2.4V152.4z"/>
	<path class="st0" d="M1236.3,133c1.3,0,2.2,0.2,2.8,0.7c0.6,0.4,0.9,1.1,0.9,2.1c0,0.9-0.3,1.6-0.8,2c-0.5,0.5-1.4,0.7-2.4,0.7
		h-15.7v13c0,4.3,0.6,7,1.7,8.4c1.1,1.3,3,2,5.7,2c2.4,0,5.2-0.7,8.5-2.1c3.3-1.4,5.3-2.1,6.1-2.1c0.7,0,1.3,0.3,1.8,0.8
		c0.5,0.5,0.8,1.2,0.8,1.9c0,0.9-0.3,1.6-1,2.2c-0.6,0.6-1.7,1.3-3.2,1.8c-2.5,1-4.8,1.7-6.9,2.2c-2,0.5-3.9,0.7-5.7,0.7
		c-3,0-5.6-0.5-7.6-1.5c-2.1-1-3.6-2.4-4.6-4.3c-0.5-0.9-0.9-2-1.1-3.2c-0.2-1.2-0.3-3.2-0.3-5.8v-1.2v-13h-6.6
		c-1.1,0-1.9-0.2-2.4-0.6c-0.5-0.4-0.7-1.1-0.7-2.1c0-1.1,0.3-1.8,1-2.2c0.7-0.4,2.1-0.6,4.3-0.6h4.4v-8V123c0-1.1,0.2-1.9,0.7-2.5
		c0.5-0.5,1.2-0.8,2.2-0.8c1.1,0,1.9,0.3,2.4,1c0.4,0.6,0.7,2.1,0.7,4.4v7.9H1236.3z"/>
	<path class="st0" d="M1293.8,148.9c0,5.5-1.9,10.1-5.7,13.6c-3.8,3.5-8.7,5.3-14.7,5.3c-6,0-10.9-1.8-14.7-5.3
		c-3.8-3.5-5.7-8.1-5.7-13.6s1.9-10.1,5.7-13.6c3.8-3.5,8.7-5.3,14.7-5.3s10.9,1.8,14.7,5.3C1292,138.8,1293.8,143.3,1293.8,148.9z
		 M1273.4,162.3c4,0,7.3-1.3,9.8-3.8c2.6-2.5,3.8-5.7,3.8-9.7s-1.3-7.1-3.8-9.7c-2.6-2.6-5.8-3.8-9.8-3.8s-7.2,1.3-9.8,3.8
		c-2.6,2.6-3.8,5.8-3.8,9.7c0,3.9,1.3,7.2,3.8,9.7C1266.2,161,1269.4,162.3,1273.4,162.3z"/>
	<path class="st0" d="M1318.3,148.9c2.6,0.8,4.4,2.1,5.4,4c1,1.8,1.6,4.9,1.6,9.2v5.7c0,2.7,0.3,4.5,0.9,5.5
		c0.6,0.9,1.6,1.6,3.1,1.9c0.3,0.1,0.8,0.2,1.4,0.2c2.3,0.3,3.4,1.4,3.4,3.1c0,0.9-0.3,1.5-0.9,2c-0.6,0.5-1.4,0.7-2.5,0.7
		c-4.4,0-7.5-1.1-9.3-3.3c-1.8-2.2-2.7-6.3-2.7-12.2v-4.6c0-3-0.4-5.2-1.3-6.4c-0.9-1.3-3-2.2-6.3-2.7c-1-0.2-1.7-0.5-2.2-1
		c-0.4-0.5-0.7-1.2-0.7-2.2c0-0.8,0.2-1.5,0.5-1.9c0.4-0.5,0.9-0.8,1.7-1c0.4-0.1,0.9-0.2,1.7-0.4c4.3-0.9,6.5-3.9,6.5-8.9V132
		c0-6,0.9-10.1,2.7-12.3c1.8-2.2,4.9-3.3,9.3-3.3c1.1,0,1.9,0.3,2.5,0.8c0.6,0.5,0.9,1.2,0.9,2.1c0,1.8-1.1,2.8-3.4,3.1
		c-0.4,0.1-0.8,0.1-1.1,0.2c-1.6,0.3-2.8,1-3.4,1.9c-0.6,1-1,2.9-1,5.6v5.7c0,4.3-0.5,7.4-1.6,9.2
		C1322.7,146.8,1320.9,148.1,1318.3,148.9z"/>
	<path class="st0" d="M1381.3,121.9c0.3-0.7,0.6-1.2,1.1-1.5c0.5-0.3,1.1-0.4,2-0.4c1,0,1.6,0.2,2,0.7c0.4,0.5,0.6,1.4,0.6,2.9
		c0,2.5,0,4.9,0.1,7.1c0.1,2.2,0.1,3.1,0.1,2.9c0,1.2-0.2,2-0.6,2.5c-0.4,0.4-1.2,0.6-2.2,0.6c-1.7,0-2.8-1.2-3.3-3.7
		c-0.2-0.7-0.3-1.3-0.4-1.7c-0.5-1.9-1.7-3.5-3.5-4.8c-1.9-1.2-4.1-1.8-6.6-1.8c-4.6,0-8.3,1.7-11,5c-2.8,3.4-4.2,7.9-4.2,13.5
		c0,5.7,1.4,10.2,4.2,13.5c2.8,3.4,6.5,5,11.1,5c1.5,0,3-0.2,4.6-0.6c1.6-0.4,3.1-1.1,4.6-1.9c0.7-0.4,1.7-1,2.9-1.8
		c1.2-0.9,2.1-1.3,2.6-1.3c0.8,0,1.5,0.3,2,0.8c0.6,0.5,0.8,1.2,0.8,2c0,0.8-0.3,1.5-0.9,2.2c-0.6,0.7-1.7,1.6-3.4,2.6
		c-2.2,1.4-4.4,2.5-6.6,3.1c-2.2,0.7-4.5,1-7,1c-6.4,0-11.7-2.3-15.9-6.8c-4.2-4.5-6.3-10.3-6.3-17.4c0-7,2.1-12.8,6.3-17.4
		c4.2-4.6,9.5-6.9,15.9-6.9c1.7,0,3.5,0.2,5.2,0.6C1377.4,120.5,1379.3,121.1,1381.3,121.9z"/>
	<path class="st0" d="M1416.9,147.6l8.4-24.3c0.4-0.9,0.9-1.6,1.5-2c0.6-0.4,1.5-0.6,2.7-0.6h6.4c0.8,0,1.5,0.2,1.9,0.7
		c0.4,0.5,0.6,1.1,0.6,2c0,1-0.3,1.7-0.8,2c-0.5,0.4-1.5,0.6-2.9,0.6h-0.6l1.1,35.4h0.9c1.7,0,2.8,0.2,3.4,0.6
		c0.6,0.4,0.9,1.1,0.9,2.1c0,0.9-0.2,1.6-0.7,2.1c-0.5,0.5-1.1,0.7-2,0.7h-10.9c-1.5,0-2.5-0.2-3.1-0.6c-0.5-0.4-0.8-1.1-0.8-2.2
		c0-1,0.3-1.7,1-2.1c0.6-0.4,1.9-0.6,3.7-0.6h1.7l-0.8-33.4l-7.7,22.4c-0.4,1.1-0.9,1.8-1.4,2.3c-0.6,0.4-1.4,0.6-2.6,0.6
		c-1.1,0-1.9-0.2-2.5-0.6c-0.6-0.4-1-1.2-1.4-2.2l-7.8-22.4l-0.7,33.4h2.6c1.5,0,2.6,0.2,3.2,0.6c0.6,0.4,0.9,1.1,0.9,2.1
		c0,1-0.3,1.8-0.8,2.2c-0.5,0.4-1.6,0.6-3.1,0.6h-10.9c-0.9,0-1.6-0.2-2-0.7c-0.5-0.5-0.7-1.2-0.7-2.1c0-1,0.3-1.7,0.9-2.1
		c0.6-0.4,1.7-0.6,3.4-0.6h0.9l1.1-35.4h-0.6c-1.4,0-2.4-0.2-3-0.6s-0.8-1.1-0.8-2c0-0.9,0.2-1.5,0.7-2c0.4-0.5,1.1-0.7,1.9-0.7h6.4
		c1.2,0,2.1,0.2,2.7,0.6c0.6,0.4,1.1,1.1,1.5,2L1416.9,147.6z"/>
	<path class="st0" d="M1453.2,165.4c-0.1,1.2-0.4,2-0.9,2.4c-0.5,0.5-1.2,0.7-2.2,0.7c-1.1,0-1.9-0.3-2.4-1
		c-0.5-0.6-0.8-1.7-0.9-3.1l-0.5-9v-0.7c0-1.2,0.2-2.1,0.7-2.6c0.5-0.5,1.3-0.8,2.4-0.8c1.6,0,2.7,1.1,3.3,3.3
		c0.3,1.1,0.6,2,0.9,2.5c0.9,1.8,2.3,3.2,4.3,4.2c2,1,4.3,1.5,7,1.5c3.3,0,6.1-0.8,8.1-2.4c2.1-1.6,3.1-3.6,3.1-6.1
		c0-2-0.6-3.7-1.9-4.9c-1.3-1.2-3.2-2-5.6-2.4l-5.8-0.8c-5.4-0.8-9.3-2.2-11.7-4.2c-2.5-2.1-3.7-5-3.7-8.7c0-4,1.6-7.3,4.9-10
		c3.3-2.7,7.4-4,12.3-4c1.4,0,2.9,0.2,4.5,0.6c1.6,0.4,3.4,1,5.4,1.8c0.1-0.8,0.3-1.3,0.6-1.6c0.4-0.3,1-0.4,1.9-0.4
		c1.1,0,1.9,0.2,2.4,0.5c0.4,0.3,0.7,1.1,0.8,2.4l0.5,8.1v0.4c0,0.9-0.3,1.6-0.8,2.1c-0.5,0.5-1.2,0.8-2.2,0.8c-1.4,0-2.4-1-3.2-2.9
		c-0.4-1.1-0.7-1.9-1.1-2.4c-0.9-1.3-2.1-2.3-3.7-3c-1.6-0.7-3.4-1.1-5.5-1.1c-3.1,0-5.7,0.8-7.6,2.3c-2,1.6-2.9,3.6-2.9,6.1
		c0,2,0.7,3.5,2.2,4.7c1.5,1.1,3.7,1.9,6.7,2.3l6.2,0.8c4.5,0.6,7.9,2,10.2,4.1c2.3,2.2,3.4,5.1,3.4,8.8c0,4.4-1.6,7.8-4.9,10.5
		c-3.2,2.6-7.6,3.9-13,3.9c-1.9,0-3.7-0.2-5.6-0.7C1457.2,167,1455.3,166.3,1453.2,165.4z"/>
	<path class="st0" d="M1515.3,148.8c-2.6-0.8-4.5-2-5.5-3.9c-1-1.8-1.6-4.9-1.6-9.2V130c0-2.7-0.3-4.6-0.9-5.5c-0.6-0.9-1.6-1.6-3-2
		c-0.3-0.1-0.8-0.2-1.5-0.2c-2.2-0.3-3.4-1.3-3.4-2.9c0-1,0.3-1.7,0.8-2.2c0.5-0.5,1.4-0.8,2.5-0.8c4.4,0,7.5,1.1,9.3,3.3
		c1.8,2.2,2.7,6.3,2.7,12.2v4.6c0,5,2.1,8,6.3,8.9c0.8,0.2,1.4,0.3,1.8,0.4c0.8,0.2,1.4,0.6,1.8,1c0.4,0.5,0.6,1.1,0.6,1.9
		c0,0.9-0.2,1.6-0.6,2.1c-0.4,0.5-1,0.9-1.8,1c-0.3,0.1-0.7,0.1-1.2,0.2c-4.6,0.9-6.8,3.9-6.8,9v4.5c0,6-0.9,10.1-2.7,12.3
		s-4.9,3.3-9.3,3.3c-1.1,0-2-0.3-2.5-0.8c-0.6-0.5-0.8-1.3-0.8-2.3c0-1.7,1.1-2.6,3.4-3c0.5-0.1,0.8-0.1,1-0.2
		c1.7-0.3,2.9-0.9,3.5-1.8c0.6-0.9,0.9-2.8,0.9-5.6V162c0-4.3,0.5-7.3,1.6-9.2C1510.9,151,1512.7,149.6,1515.3,148.8z"/>
</g>
<path class="st0" d="M1004.1,158.6h-36.2c-4.3,0-7.9-3.5-7.9-7.9v-36.2c0-4.3,3.5-7.9,7.9-7.9h36.2c4.3,0,7.9,3.5,7.9,7.9v36.2
	C1012,155.1,1008.4,158.6,1004.1,158.6z"/>
<g>
	<path class="st2" d="M981,138.6c0.7-0.2,1.4-0.4,2.1-0.5l0,7.8c0,0.4,0.2,0.7,0.5,0.9c0.3,0.2,0.7,0.2,1,0l26.8-15.7
		c0.3-0.2,0.5-0.5,0.5-0.9c0-0.4-0.2-0.7-0.5-0.9l-27-15.4c-0.3-0.2-0.7-0.2-1,0c-0.3,0.2-0.5,0.5-0.5,0.9l0.1,8.4
		c-0.3,0.1-0.5,0.2-0.8,0.4c-1,0.5-2.1,1.1-3.4,1.9c-2.1,1.2-4.2,2.8-6.4,4.8c-2,1.8-3.8,3.8-5.5,5.9c-2.8,3.6-5.1,7.7-6.7,12.2
		c-0.6,1.6-1.2,3.5-1.6,5.5c-0.1,0.5,0.2,1,0.7,1.1c0.2,0.1,0.4,0.1,0.5,0c0.3-0.1,0.6-0.2,0.7-0.5c1-1.7,2.2-3.2,3.2-4.4
		c1.6-1.8,3.4-3.6,5.4-5.2C972.6,141.9,976.7,139.8,981,138.6L981,138.6z M981,138.6"/>
</g>
<path class="st0" d="M1027,134.2h36.2c4.3,0,7.9,3.5,7.9,7.9v36.2c0,4.3-3.5,7.9-7.9,7.9H1027c-4.3,0-7.9-3.5-7.9-7.9V142
	C1019.1,137.7,1022.7,134.2,1027,134.2z"/>
<g>
	<path class="st2" d="M1050.2,154.2c-0.7,0.2-1.4,0.4-2.1,0.5l0-7.8c0-0.4-0.2-0.7-0.5-0.9c-0.3-0.2-0.7-0.2-1,0l-26.8,15.7
		c-0.3,0.2-0.5,0.5-0.5,0.9c0,0.4,0.2,0.7,0.5,0.9l27,15.4c0.3,0.2,0.7,0.2,1,0c0.3-0.2,0.5-0.5,0.5-0.9l-0.1-8.4
		c0.3-0.1,0.5-0.2,0.8-0.4c1-0.5,2.1-1.1,3.4-1.9c2.1-1.2,4.2-2.8,6.4-4.8c2-1.8,3.8-3.8,5.5-5.9c2.8-3.6,5.1-7.7,6.7-12.2
		c0.6-1.6,1.2-3.5,1.6-5.5c0.1-0.5-0.2-1-0.7-1.1c-0.2-0.1-0.4-0.1-0.5,0c-0.3,0.1-0.6,0.2-0.7,0.5c-1,1.7-2.2,3.2-3.2,4.4
		c-1.6,1.8-3.4,3.6-5.4,5.2C1058.5,150.8,1054.4,153,1050.2,154.2L1050.2,154.2z M1050.2,154.2"/>
</g>
<path class="st0" d="M1002.9,203.4h-20.7c-3.6,0-6.6-3-6.6-6.6v-20.7c0-3.6,3-6.6,6.6-6.6h20.7c3.6,0,6.6,3,6.6,6.6v20.7
	C1009.5,200.4,1006.5,203.4,1002.9,203.4z"/>
<path class="st0" d="M1046.4,123.2h-20.7c-3.6,0-6.6-3-6.6-6.6V95.9c0-3.6,3-6.6,6.6-6.6h20.7c3.6,0,6.6,3,6.6,6.6v20.7
	C1053.1,120.2,1050.1,123.2,1046.4,123.2z"/>
<path class="st0" d="M1059.5,79.9h-12.8c-2.3,0-4.1-1.8-4.1-4.1V63c0-2.3,1.8-4.1,4.1-4.1h12.8c2.2,0,4.1,1.8,4.1,4.1v12.8
	C1063.5,78,1061.7,79.9,1059.5,79.9z"/>
<path class="st0" d="M982,233h-12.8c-2.3,0-4.1-1.8-4.1-4.1v-12.8c0-2.3,1.8-4.1,4.1-4.1H982c2.3,0,4.1,1.8,4.1,4.1v12.8
	C986.1,231.1,984.3,233,982,233z"/>
<path class="st4" d="M1561.4,579.8H883.1c-4.6,0-8.4-3.8-8.4-8.4V292c0-4.6,3.8-8.4,8.4-8.4h678.3c4.6,0,8.4,3.8,8.4,8.4v279.4
	C1569.8,576,1566.1,579.8,1561.4,579.8z"/>
<g>
	<path class="st2" d="M1117.2,406.4h-5.7c-1.6,0-2.7-0.2-3.3-0.6c-0.6-0.4-1-1.1-1-2.2c0-1.1,0.3-1.8,0.8-2.2
		c0.6-0.4,2.1-0.6,4.6-0.6h11.1c1.4,0,2.4,0.2,2.9,0.6c0.5,0.4,1,1.1,1.4,2.1l15.2,38h0.7c1.4,0,2.4,0.2,2.9,0.6
		c0.5,0.4,0.8,1.1,0.8,2.1c0,1.1-0.2,1.8-0.7,2.2c-0.5,0.4-1.4,0.6-2.8,0.6h-10.6c-2,0-3.2-0.2-3.8-0.6c-0.6-0.4-0.8-1.1-0.8-2.2
		c0-1,0.3-1.7,0.9-2.1c0.6-0.4,1.8-0.6,3.4-0.6h3.6l-3.8-9.3h-19.8l-3.3,9.3h3.8c1.7,0,2.9,0.2,3.5,0.6c0.6,0.4,0.9,1.1,0.9,2.1
		c0,1.1-0.3,1.8-0.8,2.2c-0.6,0.4-1.8,0.6-3.7,0.6h-10.2c-1.7,0-2.8-0.2-3.3-0.6c-0.5-0.4-0.8-1.1-0.8-2.2c0-1,0.3-1.7,0.8-2.1
		c0.5-0.4,1.6-0.6,3.1-0.6h0.7L1117.2,406.4z M1115.2,427h15.9l-8.4-20.6L1115.2,427z"/>
	<path class="st2" d="M1161.3,432.6c0,3.3,0.7,5.7,2.1,7.2c1.4,1.5,3.6,2.3,6.5,2.3c2.8,0,5.2-0.9,7.3-2.7c2-1.8,3-4,3-6.7v-16.1
		h-5.3c-1,0-1.7-0.2-2.2-0.6c-0.5-0.4-0.7-1.1-0.7-2c0-1,0.2-1.7,0.7-2.2c0.5-0.5,1.3-0.7,2.4-0.7h8.3c1,0,1.7,0.2,2.1,0.6
		c0.4,0.4,0.6,1.5,0.6,3.1v26.7h1.8c1.3,0,2.2,0.2,2.7,0.6c0.6,0.4,0.8,1.1,0.8,2.1c0,0.9-0.3,1.6-0.8,2.1c-0.5,0.5-1.3,0.7-2.3,0.7
		h-5.9c-0.7,0-1.2-0.1-1.6-0.4c-0.4-0.3-0.6-0.7-0.6-1.2v-2.6c-2.5,1.9-4.6,3.2-6.4,3.9c-1.8,0.7-3.6,1.1-5.6,1.1
		c-4.3,0-7.5-1.1-9.6-3.4c-2.1-2.3-3.2-5.7-3.2-10.3v-17.5h-0.8c-1.8,0-3-0.2-3.6-0.6c-0.6-0.4-1-1.1-1-2.2c0-0.9,0.3-1.6,0.8-2
		c0.5-0.5,1.3-0.7,2.4-0.7h5.9c0.9,0,1.5,0.2,1.9,0.5c0.3,0.4,0.5,1.2,0.5,2.4V432.6z"/>
	<path class="st2" d="M1229.4,413.2c1.3,0,2.2,0.2,2.8,0.7c0.6,0.4,0.9,1.1,0.9,2.1c0,0.9-0.3,1.6-0.8,2c-0.5,0.5-1.4,0.7-2.4,0.7
		h-15.7v13c0,4.3,0.6,7,1.7,8.4c1.1,1.3,3,2,5.7,2c2.4,0,5.2-0.7,8.5-2.1c3.3-1.4,5.3-2.1,6.1-2.1c0.7,0,1.3,0.3,1.8,0.8
		c0.5,0.5,0.8,1.2,0.8,1.9c0,0.9-0.3,1.6-1,2.2c-0.6,0.6-1.7,1.3-3.2,1.8c-2.5,1-4.8,1.7-6.9,2.2c-2,0.5-3.9,0.7-5.7,0.7
		c-3,0-5.6-0.5-7.6-1.5c-2.1-1-3.6-2.4-4.6-4.3c-0.5-0.9-0.9-2-1.1-3.2c-0.2-1.2-0.3-3.2-0.3-5.8v-1.2v-13h-6.6
		c-1.1,0-1.9-0.2-2.4-0.6c-0.5-0.4-0.7-1.1-0.7-2.1c0-1.1,0.3-1.8,1-2.2c0.7-0.4,2.1-0.6,4.3-0.6h4.4v-8v-2.1c0-1.1,0.2-1.9,0.7-2.5
		c0.5-0.5,1.2-0.8,2.2-0.8c1.1,0,1.9,0.3,2.4,1c0.4,0.6,0.7,2.1,0.7,4.4v7.9H1229.4z"/>
	<path class="st2" d="M1287,429c0,5.5-1.9,10.1-5.7,13.6c-3.8,3.5-8.7,5.3-14.7,5.3c-6,0-10.9-1.8-14.7-5.3
		c-3.8-3.5-5.7-8.1-5.7-13.6s1.9-10.1,5.7-13.6c3.8-3.5,8.7-5.3,14.7-5.3s10.9,1.8,14.7,5.3C1285.1,418.9,1287,423.5,1287,429z
		 M1266.6,442.4c4,0,7.3-1.3,9.8-3.8c2.6-2.5,3.8-5.7,3.8-9.7s-1.3-7.1-3.8-9.7c-2.6-2.6-5.8-3.8-9.8-3.8s-7.2,1.3-9.8,3.8
		c-2.6,2.6-3.8,5.8-3.8,9.7c0,3.9,1.3,7.2,3.8,9.7C1259.3,441.2,1262.6,442.4,1266.6,442.4z"/>
	<path class="st2" d="M1311.5,429c2.6,0.8,4.4,2.1,5.4,4c1,1.8,1.6,4.9,1.6,9.2v5.7c0,2.7,0.3,4.5,0.9,5.5c0.6,0.9,1.6,1.6,3.1,1.9
		c0.3,0.1,0.8,0.2,1.4,0.2c2.3,0.3,3.4,1.4,3.4,3.1c0,0.9-0.3,1.5-0.9,2c-0.6,0.5-1.4,0.7-2.5,0.7c-4.4,0-7.5-1.1-9.3-3.3
		c-1.8-2.2-2.7-6.3-2.7-12.2v-4.6c0-3-0.4-5.2-1.3-6.4c-0.9-1.3-3-2.2-6.3-2.7c-1-0.2-1.7-0.5-2.2-1c-0.4-0.5-0.7-1.2-0.7-2.2
		c0-0.8,0.2-1.5,0.5-1.9c0.4-0.5,0.9-0.8,1.7-1c0.4-0.1,0.9-0.2,1.7-0.4c4.3-0.9,6.5-3.9,6.5-8.9v-4.6c0-6,0.9-10.1,2.7-12.3
		c1.8-2.2,4.9-3.3,9.3-3.3c1.1,0,1.9,0.3,2.5,0.8c0.6,0.5,0.9,1.2,0.9,2.1c0,1.8-1.1,2.8-3.4,3.1c-0.4,0.1-0.8,0.1-1.1,0.2
		c-1.6,0.3-2.8,1-3.4,1.9c-0.6,1-1,2.9-1,5.6v5.7c0,4.3-0.5,7.4-1.6,9.2C1315.9,427,1314.1,428.2,1311.5,429z"/>
	<path class="st2" d="M1374.4,402.1c0.3-0.7,0.6-1.2,1.1-1.5c0.5-0.3,1.1-0.4,2-0.4c1,0,1.6,0.2,2,0.7c0.4,0.5,0.6,1.4,0.6,2.9
		c0,2.5,0,4.9,0.1,7.1c0.1,2.2,0.1,3.1,0.1,2.9c0,1.2-0.2,2-0.6,2.5c-0.4,0.4-1.2,0.6-2.2,0.6c-1.7,0-2.8-1.2-3.3-3.7
		c-0.2-0.7-0.3-1.3-0.4-1.7c-0.5-1.9-1.7-3.5-3.5-4.8c-1.9-1.2-4.1-1.8-6.6-1.8c-4.6,0-8.3,1.7-11,5c-2.8,3.4-4.2,7.9-4.2,13.5
		c0,5.7,1.4,10.2,4.2,13.5s6.5,5,11.1,5c1.5,0,3-0.2,4.6-0.6c1.6-0.4,3.1-1.1,4.6-1.9c0.7-0.4,1.7-1,2.9-1.8
		c1.2-0.9,2.1-1.3,2.6-1.3c0.8,0,1.5,0.3,2,0.8s0.8,1.2,0.8,2c0,0.8-0.3,1.5-0.9,2.2c-0.6,0.7-1.7,1.6-3.4,2.6
		c-2.2,1.4-4.4,2.5-6.6,3.1c-2.2,0.7-4.5,1-7,1c-6.4,0-11.7-2.3-15.9-6.8c-4.2-4.5-6.3-10.3-6.3-17.4c0-7,2.1-12.8,6.3-17.4
		c4.2-4.6,9.5-6.9,15.9-6.9c1.7,0,3.5,0.2,5.2,0.6C1370.6,400.6,1372.5,401.3,1374.4,402.1z"/>
	<path class="st2" d="M1410,427.8l8.4-24.3c0.4-0.9,0.9-1.6,1.5-2c0.6-0.4,1.5-0.6,2.7-0.6h6.4c0.8,0,1.5,0.2,1.9,0.7
		c0.4,0.5,0.6,1.1,0.6,2c0,1-0.3,1.7-0.8,2c-0.5,0.4-1.5,0.6-2.9,0.6h-0.6l1.1,35.4h0.9c1.7,0,2.8,0.2,3.4,0.6
		c0.6,0.4,0.9,1.1,0.9,2.1c0,0.9-0.2,1.6-0.7,2.1c-0.5,0.5-1.1,0.7-2,0.7h-10.9c-1.5,0-2.5-0.2-3.1-0.6c-0.5-0.4-0.8-1.1-0.8-2.2
		c0-1,0.3-1.7,1-2.1c0.6-0.4,1.9-0.6,3.7-0.6h1.7l-0.8-33.4l-7.7,22.4c-0.4,1.1-0.9,1.8-1.4,2.3c-0.6,0.4-1.4,0.6-2.6,0.6
		c-1.1,0-1.9-0.2-2.5-0.6c-0.6-0.4-1-1.2-1.4-2.2L1398,408l-0.7,33.4h2.6c1.5,0,2.6,0.2,3.2,0.6c0.6,0.4,0.9,1.1,0.9,2.1
		c0,1-0.3,1.8-0.8,2.2c-0.5,0.4-1.6,0.6-3.1,0.6h-10.9c-0.9,0-1.6-0.2-2-0.7c-0.5-0.5-0.7-1.2-0.7-2.1c0-1,0.3-1.7,0.9-2.1
		c0.6-0.4,1.7-0.6,3.4-0.6h0.9l1.1-35.4h-0.6c-1.4,0-2.4-0.2-3-0.6c-0.5-0.4-0.8-1.1-0.8-2c0-0.9,0.2-1.5,0.7-2
		c0.4-0.5,1.1-0.7,1.9-0.7h6.4c1.2,0,2.1,0.2,2.7,0.6c0.6,0.4,1.1,1.1,1.5,2L1410,427.8z"/>
	<path class="st2" d="M1446.4,445.6c-0.1,1.2-0.4,2-0.9,2.4c-0.5,0.5-1.2,0.7-2.2,0.7c-1.1,0-1.9-0.3-2.4-1
		c-0.5-0.6-0.8-1.7-0.9-3.1l-0.5-9v-0.7c0-1.2,0.2-2.1,0.7-2.6c0.5-0.5,1.3-0.8,2.4-0.8c1.6,0,2.7,1.1,3.3,3.3
		c0.3,1.1,0.6,2,0.9,2.5c0.9,1.8,2.3,3.2,4.3,4.2c2,1,4.3,1.5,7,1.5c3.3,0,6.1-0.8,8.1-2.4c2.1-1.6,3.1-3.6,3.1-6.1
		c0-2-0.6-3.7-1.9-4.9c-1.3-1.2-3.2-2-5.6-2.4l-5.8-0.8c-5.4-0.8-9.3-2.2-11.7-4.2s-3.7-5-3.7-8.7c0-4,1.6-7.3,4.9-10
		c3.3-2.7,7.4-4,12.3-4c1.4,0,2.9,0.2,4.5,0.6c1.6,0.4,3.4,1,5.4,1.8c0.1-0.8,0.3-1.3,0.6-1.6c0.4-0.3,1-0.4,1.9-0.4
		c1.1,0,1.9,0.2,2.4,0.5c0.4,0.3,0.7,1.1,0.8,2.4l0.5,8.1v0.4c0,0.9-0.3,1.6-0.8,2.1c-0.5,0.5-1.2,0.8-2.2,0.8c-1.4,0-2.4-1-3.2-2.9
		c-0.4-1.1-0.7-1.9-1.1-2.4c-0.9-1.3-2.1-2.3-3.7-3c-1.6-0.7-3.4-1.1-5.5-1.1c-3.1,0-5.7,0.8-7.6,2.3c-2,1.6-2.9,3.6-2.9,6.1
		c0,2,0.7,3.5,2.2,4.7c1.5,1.1,3.7,1.9,6.7,2.3l6.2,0.8c4.5,0.6,7.9,2,10.2,4.1c2.3,2.2,3.4,5.1,3.4,8.8c0,4.4-1.6,7.8-4.9,10.5
		c-3.2,2.6-7.6,3.9-13,3.9c-1.9,0-3.7-0.2-5.6-0.7C1450.4,447.2,1448.4,446.5,1446.4,445.6z"/>
	<path class="st2" d="M1508.5,429c-2.6-0.8-4.5-2-5.5-3.9c-1-1.8-1.6-4.9-1.6-9.2v-5.7c0-2.7-0.3-4.6-0.9-5.5c-0.6-0.9-1.6-1.6-3-2
		c-0.3-0.1-0.8-0.2-1.5-0.2c-2.2-0.3-3.4-1.3-3.4-2.9c0-1,0.3-1.7,0.8-2.2c0.5-0.5,1.4-0.8,2.5-0.8c4.4,0,7.5,1.1,9.3,3.3
		c1.8,2.2,2.7,6.3,2.7,12.2v4.6c0,5,2.1,8,6.3,8.9c0.8,0.2,1.4,0.3,1.8,0.4c0.8,0.2,1.4,0.6,1.8,1c0.4,0.5,0.6,1.1,0.6,1.9
		c0,0.9-0.2,1.6-0.6,2.1c-0.4,0.5-1,0.9-1.8,1c-0.3,0.1-0.7,0.1-1.2,0.2c-4.6,0.9-6.8,3.9-6.8,9v4.5c0,6-0.9,10.1-2.7,12.3
		s-4.9,3.3-9.3,3.3c-1.1,0-2-0.3-2.5-0.8c-0.6-0.5-0.8-1.3-0.8-2.3c0-1.7,1.1-2.6,3.4-3c0.5-0.1,0.8-0.1,1-0.2
		c1.7-0.3,2.9-0.9,3.5-1.8c0.6-0.9,0.9-2.8,0.9-5.6v-5.8c0-4.3,0.5-7.3,1.6-9.2C1504,431.1,1505.9,429.8,1508.5,429z"/>
</g>
<path class="st2" d="M997.2,386.8h-36.2c-4.3,0-7.9,3.5-7.9,7.9v33.7c0,0,0,0,0,0c1.6-4.5,3.9-8.6,6.7-12.2c1.6-2.1,3.5-4.1,5.5-5.9
	c2.2-2,4.3-3.5,6.4-4.8c1.3-0.8,2.4-1.4,3.4-1.9c0.3-0.1,0.5-0.3,0.8-0.4l-0.1-8.4c0-0.4,0.2-0.7,0.5-0.9c0.3-0.2,0.7-0.2,1,0
	l27,15.4c0.3,0.2,0.5,0.5,0.5,0.9c0,0.4-0.2,0.7-0.5,0.9l-26.8,15.7c-0.3,0.2-0.7,0.2-1,0c-0.3-0.2-0.5-0.5-0.5-0.9l0-7.8
	c-0.7,0.1-1.3,0.3-2.1,0.5c-4.2,1.2-8.3,3.3-12,6.3c-2,1.6-3.8,3.4-5.4,5.2c-0.9,1-2,2.4-2.9,3.8c1.2,2.8,4,4.7,7.2,4.7h36.2
	c4.3,0,7.9-3.5,7.9-7.9v-36.2C1005.1,390.4,1001.6,386.8,997.2,386.8z"/>
<path class="st2" d="M1064.2,424.7c-1.6,4.5-3.9,8.6-6.7,12.2c-1.6,2.1-3.5,4.1-5.5,5.9c-2.2,2-4.3,3.5-6.4,4.8
	c-1.3,0.8-2.4,1.4-3.4,1.9c-0.3,0.1-0.5,0.3-0.8,0.4l0.1,8.4c0,0.4-0.2,0.7-0.5,0.9c-0.3,0.2-0.7,0.2-1,0l-27-15.4
	c-0.3-0.2-0.5-0.5-0.5-0.9c0-0.4,0.2-0.7,0.5-0.9l26.8-15.7c0.3-0.2,0.7-0.2,1,0c0.3,0.2,0.5,0.5,0.5,0.9l0,7.8
	c0.7-0.1,1.3-0.3,2.1-0.5c4.2-1.2,8.3-3.3,12-6.3c2-1.6,3.8-3.4,5.4-5.2c0.9-1,2-2.4,2.9-3.8c-1.2-2.8-4-4.7-7.2-4.7h-36.2
	c-4.3,0-7.9,3.5-7.9,7.9v36.2c0,4.3,3.5,7.9,7.9,7.9h36.2c4.3,0,7.9-3.5,7.9-7.9L1064.2,424.7
	C1064.2,424.7,1064.2,424.7,1064.2,424.7z"/>
<path class="st2" d="M996,483.5h-20.7c-3.6,0-6.6-3-6.6-6.6v-20.7c0-3.6,3-6.6,6.6-6.6H996c3.6,0,6.6,3,6.6,6.6v20.7
	C1002.6,480.5,999.7,483.5,996,483.5z"/>
<path class="st2" d="M1039.6,403.3h-20.7c-3.6,0-6.6-3-6.6-6.6V376c0-3.6,3-6.6,6.6-6.6h20.7c3.6,0,6.6,3,6.6,6.6v20.7
	C1046.2,400.3,1043.2,403.3,1039.6,403.3z"/>
<path class="st2" d="M1052.6,360h-12.8c-2.2,0-4.1-1.8-4.1-4.1v-12.8c0-2.3,1.8-4.1,4.1-4.1h12.8c2.2,0,4.1,1.8,4.1,4.1v12.8
	C1056.7,358.2,1054.9,360,1052.6,360z"/>
<path class="st2" d="M975.2,513.1h-12.8c-2.3,0-4.1-1.8-4.1-4.1v-12.8c0-2.3,1.8-4.1,4.1-4.1h12.8c2.3,0,4.1,1.8,4.1,4.1V509
	C979.2,511.3,977.4,513.1,975.2,513.1z"/>
<text transform="matrix(1 0 0 1 120.9984 483.5196)" class="st5 st6">#3ECFFF</text>
<text transform="matrix(1 0 0 1 264.8672 483.5197)" class="st5 st6">#00A0CD</text>
<text transform="matrix(1 0 0 1 422.8653 483.5199)" class="st5 st6">#04637C</text>
<text transform="matrix(1 0 0 1 577.3565 483.5203)" class="st5 st6">#02323E</text>
</svg>
