<svg xmlns="http://www.w3.org/2000/svg" viewBox="0 0 20.45 20.17"><defs><style>.cls-1{fill:none;stroke:#666;stroke-miterlimit:10;}</style></defs><title>Asset 4</title><g id="Layer_2" data-name="Layer 2"><g id="Layer_1-2" data-name="Layer 1"><rect class="cls-1" x="2.24" y="12.69" width="2.87" height="7.62" rx="1.28" ry="1.28" transform="translate(12.74 2.23) rotate(45)"/><rect class="cls-1" x="8.02" y="8.2" width="1.36" height="6.53" transform="translate(10.66 -2.8) rotate(45)"/><path class="cls-1" d="M15.75,4.71c.31.31.61.64.89,1l.08-.08a1.39,1.39,0,0,0-.21-1.93,1.39,1.39,0,0,0-1.93-.21l-.11.11A15.53,15.53,0,0,1,15.75,4.71Z"/><path class="cls-1" d="M14.42,6.21Q13.76,5.56,13.07,5L10,8l2.14,2.14,3.06-3.06Q14.84,6.64,14.42,6.21Z"/><path class="cls-1" d="M14.42,6.21a25.64,25.64,0,0,1,5.53,8.15,13.63,13.63,0,0,0-4.2-9.66A13.56,13.56,0,0,0,5.85.51,25.56,25.56,0,0,1,14.42,6.21Z"/></g></g></svg>